# xmcd
#
# Track frame offsets: 
#        150
#        9777
#        19662
#        31219
#        41816
#        53573
#        62892
#        74634
#        85389
#        95630
#        105357
#        115782
#        125443
#        137256
#
# Disc length: 1951 seconds
#
# Revision: 0
# Processed by: cddbd v1.5.2PL0 Copyright (c) Steve Scherf et al.
# Submitted via: ExactAudioCopy v1.1
#
DISCID=b0079d0e
DTITLE=Don Bryant - Memphis Sounds Original Collection Vol.3
DYEAR=1975
DGENRE=R&B
TTITLE0=Don't Turn Your Back On Me
TTITLE1=Star Of Love
TTITLE2=The Lonely Soldier
TTITLE3=The Call Of Distress
TTITLE4=Is That Asking Too Much ?
TTITLE5=I'll Go Crazy
TTITLE6=It's So Lonely Being Me
TTITLE7=There's Something On Your Mind
TTITLE8=I'll Do The Rest
TTITLE9=The Glory Of Love
TTITLE10=Coming On Strong
TTITLE11=Can't Hide The Heart
TTITLE12=Shop Around
TTITLE13=You Cause Me To Wonder
EXTD=
EXTT0=
EXTT1=
EXTT2=
EXTT3=
EXTT4=
EXTT5=
EXTT6=
EXTT7=
EXTT8=
EXTT9=
EXTT10=
EXTT11=
EXTT12=
EXTT13=
PLAYORDER=
